<svg width="8" height="10" viewBox="0 0 8 10" fill="none" xmlns="http://www.w3.org/2000/svg">
<path d="M2.08586 9.96812C1.60053 9.96812 1.35786 9.71612 1.35786 9.21212V7.85412H0.559863C0.18653 7.85412 -0.000136709 7.68612 -0.000136709 7.35012C-0.000136709 7.00478 0.18653 6.83212 0.559863 6.83212H1.35786V5.69812H0.559863C0.18653 5.69812 -0.000136709 5.52545 -0.000136709 5.18012C-0.000136709 4.84412 0.18653 4.67612 0.559863 4.67612H1.35786V0.728116C1.35786 0.242783 1.60053 0.000116587 2.08586 0.000116587H4.63386C5.69786 0.000116587 6.51453 0.26145 7.08386 0.784117C7.6532 1.30678 7.93786 2.01145 7.93786 2.89812C7.93786 3.74745 7.64853 4.42878 7.06986 4.94212C6.50053 5.44612 5.7212 5.69812 4.73186 5.69812H2.82786V6.83212H4.73186C5.1052 6.83212 5.29186 7.00478 5.29186 7.35012C5.29186 7.68612 5.1052 7.85412 4.73186 7.85412H2.82786V9.21212C2.82786 9.71612 2.58053 9.96812 2.08586 9.96812ZM2.79986 4.67612H4.49386C5.15653 4.67612 5.66053 4.54078 6.00586 4.27012C6.36053 3.99945 6.53786 3.57012 6.53786 2.98212C6.53786 1.81545 5.85186 1.23212 4.47986 1.23212H2.79986V4.67612Z" fill="#BBBBBB"/>
</svg>
