<svg width="16" height="16" viewBox="0 0 16 16" fill="none" xmlns="http://www.w3.org/2000/svg">
<path d="M2.1499 3.5498H13.3499L12.2439 13.5038C12.206 13.8464 12.043 14.1629 11.7863 14.3928C11.5295 14.6227 11.197 14.7498 10.8523 14.7498H4.6475C4.30285 14.7498 3.9703 14.6227 3.71353 14.3928C3.45676 14.1629 3.29381 13.8464 3.2559 13.5038L2.1499 3.5498Z" stroke="black" stroke-width="1.5" stroke-linecap="round" stroke-linejoin="round"/>
<path d="M4.4913 1.5529C4.60453 1.31278 4.7837 1.1098 5.00791 0.967638C5.23212 0.825477 5.49213 0.749997 5.7576 0.75H9.742C10.0076 0.749864 10.2678 0.825282 10.4921 0.96745C10.7165 1.10962 10.8957 1.31267 11.009 1.5529L11.9498 3.55H3.5498L4.4913 1.5529Z" stroke="black" stroke-width="1.5" stroke-linecap="round" stroke-linejoin="round"/>
<path d="M0.75 3.5498H14.75" stroke="black" stroke-width="1.5" stroke-linecap="round" stroke-linejoin="round"/>
<path d="M6.3501 7.0498V10.5498" stroke="black" stroke-width="1.5" stroke-linecap="round" stroke-linejoin="round"/>
<path d="M9.1499 7.0498V10.5498" stroke="black" stroke-width="1.5" stroke-linecap="round" stroke-linejoin="round"/>
</svg>
